# xmcd
# 
# Track frame offsets:
#     150
#     27080
#     58110
#     71007
#     89097
#     98960
#     120492
#     143270
# 
# Disc length: 2271
# 
# Revision: 5
# Processed by: cddbd v1.5.2PL0 Copyright (c) Steve Scherf et al.
# Submitted via: fre:ac v1.0.17
# 
DISCID=6808dd08
DTITLE=Weather Report - Heavy Weather
DYEAR=1977
DGENRE=Jazz
TTITLE0=Birdland
TTITLE1=A Remark You Made
TTITLE2=Teen Town
TTITLE3=Harlequin
TTITLE4=Rumba Mama
TTITLE5=Palladium
TTITLE6=The Juggler
TTITLE7=Havona
EXTD=
EXTT0=
EXTT1=
EXTT2=
EXTT3=
EXTT4=
EXTT5=
EXTT6=
EXTT7=
PLAYORDER=
